<svg height="405.33333pt" viewBox="0 0 405.33333 405.33333" width="405.33333pt" xmlns="http://www.w3.org/2000/svg"><path d="m0 202.667969c0 111.929687 90.738281 202.664062 202.667969 202.664062 111.929687 0 202.664062-90.734375 202.664062-202.664062 0-111.929688-90.734375-202.667969-202.664062-202.667969-111.929688 0-202.667969 90.738281-202.667969 202.667969zm179.09375-84.269531 85.332031 74.667968c2.777344 2.417969 4.375 5.917969 4.375 9.601563 0 3.679687-1.597656 7.183593-4.375 9.597656l-85.332031 74.667969c-5.300781 4.652344-13.375 4.128906-18.027344-1.171875-4.652344-5.304688-4.128906-13.375 1.171875-18.027344l74.347657-65.066406-74.347657-65.066407c-5.300781-4.65625-5.824219-12.726562-1.171875-18.027343 4.652344-5.304688 12.726563-5.828125 18.027344-1.175781zm0 0"/></svg>