<svg height="426.66667pt" viewBox="0 0 426.66667 426.66667" width="426.66667pt" xmlns="http://www.w3.org/2000/svg"><path d="m213.332031 0c-117.820312 0-213.332031 95.511719-213.332031 213.332031 0 117.820313 95.511719 213.335938 213.332031 213.335938 117.820313 0 213.335938-95.515625 213.335938-213.335938-.132813-117.765625-95.566407-213.199219-213.335938-213.332031zm0 405.332031c-106.039062 0-192-85.960937-192-192 0-106.039062 85.960938-192 192-192 106.039063 0 192 85.960938 192 192-.121093 105.988281-86.011719 191.878907-192 192zm0 0"/><path d="m253.363281 131.644531c-1.855469-2.136719-4.488281-3.445312-7.316406-3.636719-2.824219-.1875-5.609375.757813-7.734375 2.628907l-85.332031 74.664062c-2.320313 2.027344-3.648438 4.953125-3.648438 8.03125s1.328125 6.007813 3.648438 8.03125l85.332031 74.667969c4.433594 3.878906 11.175781 3.425781 15.050781-1.011719 3.878907-4.433593 3.425781-11.171875-1.007812-15.050781l-76.15625-66.636719 76.160156-66.632812c4.433594-3.878907 4.882813-10.621094 1.003906-15.054688zm0 0"/></svg>