<svg height="405.33333pt" viewBox="0 0 405.33333 405.33333" width="405.33333pt" xmlns="http://www.w3.org/2000/svg"><path d="m405.332031 202.667969c0-111.929688-90.734375-202.667969-202.664062-202.667969-111.929688 0-202.667969 90.738281-202.667969 202.667969 0 111.929687 90.738281 202.664062 202.667969 202.664062 111.929687 0 202.664062-90.734375 202.664062-202.664062zm-179.09375 84.265625-85.332031-74.667969c-2.777344-2.414063-4.371094-5.917969-4.371094-9.597656 0-3.683594 1.59375-7.183594 4.371094-9.601563l85.332031-74.667968c5.304688-4.652344 13.375-4.128907 18.027344 1.175781 4.65625 5.300781 4.128906 13.371093-1.171875 18.027343l-74.347656 65.066407 74.347656 65.066406c5.300781 4.652344 5.828125 12.722656 1.171875 18.027344-4.652344 5.300781-12.722656 5.824219-18.027344 1.171875zm0 0"/></svg>